<?xml version="1.0" encoding="UTF-8" standalone="no"?>
<svg
   xmlns:dc="http://purl.org/dc/elements/1.1/"
   xmlns:cc="http://web.resource.org/cc/"
   xmlns:rdf="http://www.w3.org/1999/02/22-rdf-syntax-ns#"
   xmlns:svg="http://www.w3.org/2000/svg"
   xmlns="http://www.w3.org/2000/svg"
   xmlns:sodipodi="http://inkscape.sourceforge.net/DTD/sodipodi-0.dtd"
   xmlns:inkscape="http://www.inkscape.org/namespaces/inkscape"
   version="1.0"
   width="468pt"
   height="290pt"
   viewBox="0 0 468 290"
   preserveAspectRatio="xMidYMid meet"
   id="svg65841"
   sodipodi:version="0.32"
   inkscape:version="0.42.2"
   sodipodi:docname="conlangflag.svg"
   sodipodi:docbase="/home/dyson/pix/conlang">
  <defs
     id="defs65864" />
  <sodipodi:namedview
     inkscape:window-height="667"
     inkscape:window-width="958"
     inkscape:pageshadow="2"
     inkscape:pageopacity="0.0"
     borderopacity="1.0"
     bordercolor="#666666"
     pagecolor="#ffffff"
     id="base"
     inkscape:zoom="1.8979310"
     inkscape:cx="287.10782"
     inkscape:cy="112.98596"
     inkscape:window-x="0"
     inkscape:window-y="0"
     inkscape:current-layer="svg65841"
     inkscape:guide-points="true" />
  <metadata
     id="metadata65843">
Created by potrace 1.7, written by Peter Selinger 2001-2005
<rdf:RDF>
  <cc:Work
     rdf:about="">
    <dc:format>image/svg+xml</dc:format>
    <dc:type
       rdf:resource="http://purl.org/dc/dcmitype/StillImage" />
  </cc:Work>
</rdf:RDF>
</metadata>
  <rect
     style="opacity:1.0000000;fill:#ffb700;fill-opacity:1.0000000;stroke:none;stroke-width:0.10000000;stroke-miterlimit:4.0000000;stroke-dasharray:none;stroke-opacity:1.0000000"
     id="rect65866"
     width="468.00000"
     height="289.33600"
     x="0.00049000001"
     y="0.66400146" />
  <g
     id="g67425"
     transform="matrix(1.000171,0.000000,0.000000,1.000000,7.158886e-3,-1.609823e-14)">
    <path
       d="M 209.98560,119.43643 C 209.11759,120.52144 206.73057,126.59749 207.01991,126.88683 C 207.45391,127.24850 256.13469,123.05313 256.56870,122.61912 C 256.85803,122.40212 256.64103,121.38945 256.20703,120.37677 L 255.33902,118.56842 L 232.98781,118.56842 L 210.63661,118.56842 L 209.98560,119.43643 z "
       id="path65849"
       style="fill:#000000;stroke:none" />
    <path
       d="M 256.27936,125.58482 C 255.99003,125.65715 244.48892,126.59749 230.74546,127.61017 C 217.00200,128.69518 204.19888,129.70786 202.17353,129.99719 L 198.55683,130.50353 L 196.96548,133.90323 C 196.09747,135.78391 195.15713,138.09860 194.86780,139.11128 L 194.43379,140.91963 L 196.89315,140.55796 C 198.19516,140.34095 214.54264,138.74961 233.20482,137.01359 C 251.86699,135.20524 267.27413,133.68623 267.41880,133.46922 C 267.56347,133.32456 266.91246,131.37154 265.89978,129.12918 L 264.09143,125.00615 L 260.47473,125.22315 C 258.44938,125.36782 256.56870,125.51248 256.27936,125.58482 z "
       id="path65851"
       style="fill:#000000;stroke:none" />
    <path
       d="M 261.84908,136.65192 C 258.88339,137.01359 240.51055,138.74961 221.05270,140.55796 L 185.68138,143.88532 L 184.88570,144.60866 C 183.80069,145.47667 179.74999,153.86741 180.18399,154.30142 C 180.54566,154.66309 277.18389,145.25967 277.76256,144.82566 C 277.90723,144.68099 277.11155,142.65564 275.95421,140.41329 L 273.78419,136.29025 L 270.52916,136.21792 C 268.72081,136.14558 264.81477,136.36258 261.84908,136.65192 z "
       id="path65853"
       style="fill:#000000;stroke:none" />
    <path
       d="M 246.65894,150.39538 C 186.76639,156.18210 171.72092,157.70111 170.63591,158.06278 L 169.40623,158.42445 L 167.23621,163.63250 C 166.00653,166.52586 164.84919,169.41922 164.63218,170.21490 L 164.19818,171.51691 L 166.51287,171.15524 C 167.81488,170.93824 196.24214,168.04488 229.66045,164.78985 C 263.07876,161.46248 290.49334,158.71379 290.63801,158.64146 C 290.78268,158.56912 289.62534,156.03743 288.10632,152.99940 L 285.42996,147.50202 L 280.29425,147.57435 C 277.54556,147.64669 262.35542,148.87637 246.65894,150.39538 z "
       id="path65855"
       style="fill:#000000;stroke:none" />
    <path
       d="M 289.33600,160.95614 C 278.63057,162.40282 159.71347,174.26560 156.31377,174.26560 L 153.56508,174.26560 L 150.67172,180.55866 L 147.77836,186.92405 L 149.00804,187.14105 C 149.73138,187.28572 157.25412,186.70705 165.71719,185.91137 C 201.66719,182.43934 295.12272,173.46993 299.67976,173.03592 C 302.35612,172.81892 304.67081,172.38492 304.81548,172.16791 C 305.17715,171.58924 301.48811,162.40282 300.25843,160.95614 C 299.17342,159.65413 299.53509,159.65413 289.33600,160.95614 z "
       id="path65857"
       style="fill:#000000;stroke:none" />
    <path
       d="M 298.01608,175.78461 C 294.61638,176.21862 276.38821,177.95463 257.50904,179.76298 C 184.16236,186.70705 135.04758,191.55343 134.90291,191.84276 C 132.80522,196.03813 128.82685,205.65856 129.11619,205.94789 C 129.55019,206.38190 318.99294,190.39608 319.57161,189.88974 C 319.78861,189.67274 318.48660,186.27304 316.67825,182.43934 L 313.42322,175.35061 L 308.79385,175.27828 C 306.26216,175.20594 301.41578,175.42294 298.01608,175.78461 z "
       id="path65859"
       style="fill:#000000;stroke:none" />
    <path
       sodipodi:nodetypes="cccccccccccccccc"
       d="M 323.33298,192.13210 C 321.16296,192.27677 279.35391,195.82113 230.38379,199.94417 C 181.48601,204.06721 136.34959,207.82858 130.20120,208.26258 C 91.357842,211.08361 38.554022,221.21037 6.5100600,231.98813 L -0.0071526752,234.08582 L 0.0000000,290.00000 L 468.00098,290.00000 L 467.97462,236.97918 L 457.15088,233.43481 C 427.56627,223.52505 391.90561,215.71298 354.00260,210.72194 L 338.74012,208.69658 L 335.99143,201.17385 C 334.47242,197.05081 332.73640,193.21711 332.23006,192.63844 L 331.21739,191.62576 L 329.26437,191.77043 C 328.17936,191.84276 325.50300,191.98743 323.33298,192.13210 z "
       id="path65861"
       style="fill:#000000;stroke:none" />
  </g>
  <path
     style="fill:#91008c;fill-opacity:1.0000000;stroke:none"
     id="path66651"
     d="M 5.0000058e-06,220.79511 L 0.86799730,220.43344 C 6.0036717,218.55275 28.716340,211.46402 37.251684,209.07700 C 58.879352,203.21795 100.76038,194.89954 120.07338,192.72952 C 122.46039,192.44018 124.55805,192.00618 124.70273,191.78917 C 124.91972,191.49984 124.26871,188.67881 123.32838,185.42378 C 118.12038,167.41262 118.12038,145.71242 123.40071,127.48425 C 131.50205,99.490993 152.47871,75.042096 180.47173,61.009300 C 188.57306,56.886262 203.40141,51.967550 213.02174,50.231534 L 220.25507,48.857188 C 220.25507,48.857188 231.40200,47.803409 234.36008,47.803409 C 237.09988,47.803409 248.46508,48.857188 248.46508,48.857188 L 255.69843,50.231534 C 279.27909,54.571574 301.70243,66.145014 317.76043,82.130828 C 325.35543,89.725898 328.82745,93.993604 334.39711,102.89069 C 349.73179,127.41191 354.21646,159.09421 346.11512,186.87046 C 345.17479,190.12549 344.75419,193.33498 344.74078,193.30819 C 344.74703,193.32738 345.91750,193.68969 346.91079,193.88686 C 352.75015,195.04602 390.60014,201.19259 416.64014,207.34098 C 426.18815,209.58334 451.43248,217.54008 461.34216,221.44611 C 464.23549,222.60346 467.99999,223.47052 468.00001,223.54380 L 467.99683,0.031734017 L 5.0000058e-06,0.031734017 L 5.0000058e-06,220.79511 z "
     sodipodi:nodetypes="ccccsccccccccccccsccsccc" />
</svg>
